<svg width="230" height="230" viewBox="0 0 230 230" fill="none" xmlns="http://www.w3.org/2000/svg">
<path d="M131.996 33.1094C133.167 36.3568 137.237 37.4096 139.836 35.1369C141.523 33.6606 144.176 34.5741 144.597 36.7764C145.245 40.1669 149.101 41.8435 152.023 40.0053C153.921 38.8112 156.398 40.1284 156.469 42.3695C156.579 45.8196 160.125 48.0788 163.299 46.7202C165.36 45.8378 167.601 47.5263 167.321 49.7509C166.889 53.1758 170.039 55.9619 173.385 55.1164C175.559 54.5673 177.508 56.5856 176.884 58.739C175.922 62.0542 178.596 65.2986 182.034 64.9872C184.267 64.7849 185.876 67.0832 184.923 69.1124C183.454 72.2363 185.588 75.8592 189.032 76.0894C191.27 76.2389 192.5 78.7606 191.24 80.6156C189.301 83.4714 190.842 87.3835 194.208 88.1496C196.394 88.6472 197.214 91.3304 195.68 92.9655C193.318 95.4828 194.228 99.5878 197.433 100.871C199.514 101.705 199.905 104.483 198.134 105.858C195.407 107.975 195.664 112.172 198.628 113.94C200.553 115.089 200.504 117.894 198.54 118.975C195.516 120.64 195.113 124.825 197.764 127.036C199.486 128.472 198.999 131.235 196.889 131.995C193.642 133.166 192.589 137.236 194.862 139.835C196.338 141.522 195.425 144.175 193.222 144.596C189.832 145.244 188.155 149.1 189.994 152.022C191.188 153.92 189.87 156.397 187.629 156.468C184.179 156.578 181.92 160.124 183.279 163.298C184.161 165.359 182.473 167.6 180.248 167.32C176.823 166.888 174.037 170.037 174.882 173.384C175.432 175.558 173.413 177.507 171.26 176.882C167.945 175.921 164.7 178.595 165.012 182.033C165.214 184.266 162.916 185.875 160.886 184.922C157.762 183.453 154.14 185.587 153.909 189.031C153.76 191.268 151.238 192.498 149.383 191.239C146.527 189.3 142.615 190.841 141.849 194.207C141.352 196.393 138.668 197.213 137.033 195.679C134.516 193.317 130.411 194.227 129.128 197.432C128.294 199.513 125.516 199.904 124.141 198.132C122.024 195.406 117.827 195.662 116.059 198.627C114.91 200.552 112.104 200.503 111.023 198.539C109.359 195.515 105.174 195.112 102.963 197.763C101.527 199.485 98.7642 198.998 98.0038 196.888C96.8332 193.641 92.7625 192.588 90.1643 194.861C88.4767 196.337 85.8238 195.424 85.4028 193.221C84.7546 189.831 80.8986 188.154 77.9769 189.992C76.0791 191.187 73.6018 189.869 73.5305 187.628C73.4206 184.178 69.8745 181.919 66.7012 183.278C64.6399 184.16 62.3991 182.471 62.6793 180.247C63.1105 176.822 59.9614 174.036 56.6147 174.881C54.4408 175.43 52.4917 173.412 53.1164 171.259C54.0781 167.944 51.4036 164.699 47.9658 165.011C45.7328 165.213 44.1234 162.915 45.0773 160.885C46.5458 157.761 44.4118 154.139 40.9676 153.908C38.7303 153.759 37.5004 151.237 38.7599 149.382C40.6991 146.526 39.158 142.614 35.7922 141.848C33.606 141.35 32.7856 138.667 34.3199 137.032C36.6818 134.515 35.7718 130.41 32.5673 129.127C30.4857 128.293 30.0953 125.515 31.8664 124.14C34.5931 122.023 34.3364 117.826 31.3721 116.057C29.4466 114.909 29.4955 112.103 31.4599 111.022C34.4842 109.358 34.8872 105.173 32.2361 102.962C30.514 101.526 31.0012 98.7631 33.1105 98.0027C36.3579 96.8321 37.4106 92.7614 35.138 90.1632C33.6617 88.4756 34.5752 85.8227 36.7775 85.4017C40.168 84.7535 41.8446 80.8975 40.0063 77.9758C38.8123 76.078 40.1295 73.6007 42.3706 73.5294C45.8207 73.4195 48.0799 69.8734 46.7213 66.7001C45.8389 64.6388 47.5274 62.3981 49.752 62.6782C53.1769 63.1094 55.963 59.9603 55.1175 56.6136C54.5684 54.4397 56.5867 52.4906 58.7401 53.1153C62.0553 54.077 65.2997 51.4025 64.9883 47.9647C64.786 45.7317 67.0843 44.1223 69.1135 45.0762C72.2374 46.5447 75.8603 44.4107 76.0904 40.9665C76.2399 38.7293 78.7617 37.4993 80.6167 38.7589C83.4725 40.698 87.3846 39.1569 88.1507 35.7911C88.6483 33.6049 91.3315 32.7845 92.9666 34.3188C95.4839 36.6807 99.5889 35.7707 100.872 32.5662C101.706 30.4846 104.484 30.0942 105.859 31.8653C107.976 34.592 112.173 34.3353 113.941 31.371C115.09 29.4455 117.896 29.4944 118.977 31.4588C120.641 34.4831 124.826 34.8861 127.037 32.235C128.473 30.5129 131.236 31.0001 131.996 33.1094Z" stroke="black" stroke-width="2"/>
<path d="M78.6758 65.7144L80.8845 66.4749C80.5909 67.1835 80.1702 67.7575 79.6223 68.1968C79.0793 68.6378 78.4384 68.9074 77.6996 69.0055C76.9656 69.1053 76.1579 69.0035 75.2764 68.7C74.587 68.4626 74.0096 68.1316 73.5444 67.707C73.0808 67.2775 72.7317 66.7717 72.497 66.1896C72.2672 65.6092 72.1607 64.9666 72.1775 64.2618C72.1943 63.557 72.3384 62.8106 72.6097 62.0227L72.8666 61.2766C73.1379 60.4887 73.4864 59.8127 73.9119 59.2486C74.3441 58.6814 74.8319 58.2406 75.3752 57.9264C75.9235 57.614 76.5125 57.4312 77.1422 57.3781C77.7719 57.325 78.4241 57.4146 79.0988 57.6469C79.9951 57.9555 80.695 58.3783 81.1987 58.9153C81.7073 59.454 82.0331 60.0675 82.1762 60.7557C82.3242 61.4457 82.3072 62.1669 82.1252 62.9195L79.9092 62.1564C80.0338 61.7146 80.0739 61.318 80.0296 60.9668C79.987 60.6106 79.8418 60.3044 79.5939 60.0483C79.3527 59.789 78.9859 59.5746 78.4934 59.405C78.1241 59.2778 77.7778 59.2357 77.4545 59.2786C77.1313 59.3216 76.8278 59.4512 76.544 59.6674C76.2602 59.8837 75.9978 60.1899 75.7567 60.5862C75.5222 60.9791 75.3066 61.4613 75.1099 62.0325L74.8479 62.7934C74.6563 63.3498 74.5295 63.8542 74.4674 64.3066C74.4069 64.754 74.4129 65.1527 74.4852 65.5026C74.5641 65.8492 74.7161 66.1439 74.941 66.3866C75.1725 66.6261 75.4852 66.8136 75.8792 66.9493C76.3421 67.1087 76.7492 67.1662 77.1005 67.1219C77.4517 67.0776 77.7562 66.9373 78.0138 66.701C78.2764 66.4664 78.497 66.1376 78.6758 65.7144ZM85.8299 67.8059L90.8348 61.8615L93.2208 62.683L86.5487 70.086C86.3189 70.3374 86.0736 70.5697 85.8129 70.7829C85.5589 70.9928 85.2821 71.1647 84.9827 71.2985C84.6849 71.4273 84.3573 71.499 83.9997 71.5136C83.6438 71.5233 83.2467 71.4526 82.8085 71.3017C82.7001 71.2644 82.568 71.2162 82.4121 71.157C82.2562 71.0978 82.1332 71.0472 82.043 71.0051L82.6234 69.2715C82.6774 69.3066 82.7676 69.3487 82.8939 69.3977C83.022 69.4418 83.1155 69.474 83.1746 69.4944C83.4652 69.5944 83.7086 69.6314 83.9049 69.6053C84.1011 69.5793 84.2748 69.5069 84.4258 69.3881C84.5835 69.2661 84.7382 69.1128 84.8899 68.9282L85.8299 67.8059ZM86.4396 60.3481L87.0582 66.5185L86.9033 69.2001L85.2458 68.6624L84.0611 59.5291L86.4396 60.3481ZM103.134 66.0964L99.4306 76.8517L97.2145 76.0886L100.32 67.0693L95.9988 65.5813L92.8932 74.6007L90.6772 73.8376L94.3805 63.0824L103.134 66.0964ZM109.178 78.2745L108.583 80.0031L102.858 78.0319L103.453 76.3033L109.178 78.2745ZM107.285 67.5259L103.582 78.2811L101.366 77.5181L105.069 66.7628L107.285 67.5259ZM110.032 73.3713L109.452 75.0555L104.473 73.3412L105.053 71.657L110.032 73.3713ZM112.279 69.2453L111.681 70.9812L105.964 69.0125L106.561 67.2766L112.279 69.2453ZM115.384 78.0566L112.644 77.1129L113.239 75.3844L115.979 76.328C116.403 76.4739 116.771 76.5236 117.085 76.4773C117.4 76.4261 117.662 76.2961 117.872 76.0873C118.081 75.8785 118.24 75.6166 118.349 75.3014C118.459 74.9813 118.5 74.6622 118.472 74.344C118.444 74.0258 118.326 73.7372 118.117 73.4782C117.909 73.2192 117.593 73.0168 117.17 72.871L115.197 72.1919L112.092 81.2112L109.876 80.4482L113.579 69.6929L117.767 71.1351C118.609 71.425 119.278 71.8261 119.774 72.3383C120.276 72.8473 120.596 73.4228 120.733 74.0649C120.87 74.7069 120.82 75.3702 120.585 76.0548C120.346 76.7491 119.979 77.2948 119.484 77.6918C118.989 78.0888 118.392 78.3209 117.691 78.3882C116.995 78.4571 116.226 78.3465 115.384 78.0566ZM127.089 82.3845L129.298 83.145C129.004 83.8536 128.584 84.4276 128.036 84.8669C127.493 85.3079 126.852 85.5775 126.113 85.6756C125.379 85.7755 124.571 85.6736 123.69 85.3701C123 85.1327 122.423 84.8017 121.958 84.3771C121.494 83.9476 121.145 83.4418 120.91 82.8597C120.681 82.2793 120.574 81.6367 120.591 80.9319C120.608 80.2271 120.752 79.4807 121.023 78.6928L121.28 77.9467C121.551 77.1588 121.9 76.4828 122.325 75.9187C122.758 75.3515 123.245 74.9107 123.789 74.5965C124.337 74.2841 124.926 74.1013 125.556 74.0482C126.185 73.9951 126.838 74.0847 127.512 74.317C128.409 74.6256 129.109 75.0484 129.612 75.5854C130.121 76.1241 130.447 76.7376 130.59 77.4258C130.738 78.1158 130.721 78.837 130.539 79.5896L128.323 78.8265C128.447 78.3847 128.487 77.9881 128.443 77.6369C128.401 77.2807 128.255 76.9745 128.007 76.7184C127.766 76.4591 127.399 76.2447 126.907 76.0751C126.538 75.9479 126.191 75.9058 125.868 75.9487C125.545 75.9917 125.241 76.1213 124.957 76.3375C124.674 76.5538 124.411 76.86 124.17 77.2563C123.936 77.6493 123.72 78.1314 123.523 78.7026L123.261 79.4635C123.07 80.0199 122.943 80.5244 122.881 80.9767C122.82 81.4241 122.826 81.8228 122.899 82.1727C122.978 82.5193 123.13 82.814 123.354 83.0567C123.586 83.2962 123.899 83.4837 124.293 83.6194C124.756 83.7788 125.163 83.8363 125.514 83.792C125.865 83.7477 126.17 83.6074 126.427 83.3711C126.69 83.1365 126.911 82.8077 127.089 82.3845ZM135.451 77.2242L131.748 87.9795L129.532 87.2164L133.235 76.4612L135.451 77.2242ZM141.789 79.4065L135.493 84.303L132.782 83.3696L133.18 81.3006L134.99 81.9238L139.101 78.4807L141.789 79.4065ZM135.804 89.3759L134.445 83.5293L136.526 82.4775L138.433 90.2814L135.804 89.3759ZM142.64 87.83L149.464 82.0492L151.68 82.8123L147.977 93.5676L145.761 92.8045L148.264 85.5358L141.44 91.3166L139.224 90.5535L142.927 79.7982L145.143 80.5613L142.64 87.83ZM159.187 95.4941L158.592 97.2226L150.843 94.5544L151.438 92.8259L159.187 95.4941ZM152.096 93.0523L150.593 97.4179L148.509 96.7007L149.894 92.2943L152.096 93.0523ZM160.783 96.0434L159.085 100.35L157.054 99.6509L158.559 95.2779L160.783 96.0434ZM161.076 86.0476L160.479 87.7835L155.301 86.0005L155.898 84.2646L161.076 86.0476ZM162.657 86.5919L158.954 97.3472L156.745 96.5867L160.449 85.8314L162.657 86.5919ZM155.625 84.1705L157.841 84.9336L156.045 89.2148C155.751 89.9234 155.452 90.5365 155.147 91.054C154.849 91.5682 154.549 92.0075 154.247 92.3718C153.95 92.7379 153.654 93.0462 153.358 93.297C153.064 93.5428 152.774 93.7458 152.488 93.9061C152.203 94.0614 151.924 94.1912 151.651 94.2956C151.38 94.395 151.118 94.4839 150.865 94.5621L149.595 94.1246L150.19 92.3961L150.685 92.5665C150.868 92.4975 151.075 92.3867 151.303 92.2341C151.537 92.0832 151.786 91.8576 152.049 91.5571C152.319 91.2534 152.601 90.8493 152.896 90.3449C153.196 89.8422 153.507 89.2112 153.829 88.4517L155.625 84.1705ZM167.259 88.1765L163.556 98.9318L161.34 98.1688L165.043 87.4135L167.259 88.1765ZM173.597 90.3589L167.301 95.2554L164.59 94.3219L164.988 92.2529L166.798 92.8761L170.908 89.433L173.597 90.3589ZM167.611 100.328L166.253 94.4816L168.334 93.4299L170.241 101.234L167.611 100.328ZM178.556 94.1236L172.561 102.032L170.204 101.221L177.904 91.8417L179.403 92.3581L178.556 94.1236ZM177.916 103.876L178.053 93.9507L178.45 92.0299L179.965 92.5514L180.28 104.69L177.916 103.876ZM179.162 99.8269L178.564 101.563L172.883 99.6069L173.481 97.871L179.162 99.8269Z" fill="black"/>
<path d="M88.7137 90.0506L71.1229 141.138L59.2983 137.067L72.2982 99.3123L59.4772 98.7047L62.5701 89.7223L87.626 89.676L88.7137 90.0506ZM124.603 125.761L121.389 135.094C120.125 138.766 118.592 141.81 116.793 144.226C115.016 146.649 113.027 148.476 110.824 149.706C108.644 150.944 106.318 151.621 103.845 151.738C101.371 151.854 98.8245 151.462 96.2047 150.559C94.0994 149.835 92.2271 148.889 90.5878 147.723C88.9566 146.533 87.5974 145.123 86.5103 143.493C85.4547 141.847 84.6946 139.989 84.2299 137.919C83.7653 135.849 83.6509 133.56 83.8869 131.051C84.131 128.518 84.7604 125.778 85.7753 122.831L88.989 113.498C90.2616 109.802 91.7821 106.754 93.5504 104.354C95.3502 101.938 97.3515 100.116 99.5543 98.8855C101.757 97.6554 104.095 96.9821 106.569 96.8657C109.042 96.7493 111.589 97.1421 114.209 98.0442C116.314 98.7691 118.17 99.7223 119.778 100.904C121.418 102.07 122.777 103.48 123.856 105.134C124.943 106.764 125.707 108.61 126.148 110.672C126.613 112.742 126.723 115.043 126.479 117.576C126.243 120.085 125.618 122.813 124.603 125.761ZM109.069 132.461L113.298 120.18C113.862 118.543 114.259 117.084 114.491 115.803C114.746 114.53 114.843 113.412 114.782 112.449C114.745 111.495 114.569 110.675 114.255 109.991C113.949 109.284 113.521 108.705 112.97 108.254C112.45 107.787 111.816 107.425 111.067 107.167C110.132 106.845 109.221 106.754 108.336 106.894C107.482 107.018 106.652 107.413 105.848 108.078C105.043 108.743 104.259 109.729 103.495 111.035C102.754 112.35 102.034 114.025 101.333 116.06L97.1044 128.341C96.5326 130.002 96.1151 131.48 95.8519 132.777C95.6202 134.057 95.5191 135.187 95.5486 136.165C95.6095 137.128 95.793 137.963 96.0989 138.67C96.413 139.354 96.8455 139.922 97.3965 140.373C97.9476 140.824 98.5973 141.179 99.3459 141.437C100.258 141.751 101.141 141.846 101.995 141.721C102.849 141.596 103.679 141.202 104.483 140.537C105.319 139.856 106.108 138.859 106.848 137.544C107.62 136.214 108.361 134.519 109.069 132.461ZM125.819 116.838L126.75 114.137C127.418 112.195 128.447 110.574 129.837 109.273C131.227 107.973 132.929 107.133 134.944 106.754C136.958 106.375 139.217 106.616 141.72 107.478C144.293 108.364 146.256 109.576 147.61 111.115C148.964 112.654 149.777 114.36 150.048 116.232C150.342 118.113 150.155 120.024 149.486 121.966L148.556 124.667C147.904 126.562 146.883 128.16 145.493 129.46C144.126 130.769 142.436 131.613 140.422 131.992C138.431 132.379 136.172 132.138 133.646 131.268C131.096 130.39 129.144 129.182 127.79 127.643C126.436 126.104 125.6 124.39 125.282 122.501C124.988 120.621 125.167 118.733 125.819 116.838ZM134.329 116.746L133.398 119.448C133.157 120.15 133.067 120.865 133.131 121.593C133.194 122.321 133.438 122.981 133.862 123.572C134.318 124.147 134.967 124.58 135.809 124.87C136.675 125.168 137.441 125.223 138.108 125.034C138.783 124.821 139.358 124.444 139.832 123.901C140.331 123.366 140.701 122.747 140.942 122.046L141.872 119.344C142.13 118.595 142.227 117.857 142.164 117.129C142.124 116.409 141.888 115.765 141.456 115.197C141.031 114.606 140.386 114.162 139.521 113.864C138.702 113.582 137.943 113.543 137.245 113.747C136.555 113.928 135.961 114.286 135.462 114.821C134.964 115.356 134.586 115.998 134.329 116.746ZM140.17 153.924L141.1 151.222C141.761 149.304 142.786 147.694 144.176 146.394C145.589 145.101 147.303 144.265 149.317 143.886C151.355 143.515 153.625 143.76 156.128 144.622C158.701 145.508 160.653 146.717 161.984 148.247C163.338 149.786 164.15 151.492 164.421 153.365C164.716 155.245 164.533 157.145 163.872 159.063L162.942 161.765C162.281 163.683 161.256 165.292 159.867 166.593C158.5 167.902 156.821 168.749 154.83 169.137C152.839 169.524 150.581 169.283 148.054 168.413C145.505 167.535 143.541 166.322 142.164 164.775C140.786 163.228 139.939 161.51 139.621 159.622C139.327 157.741 139.51 155.842 140.17 153.924ZM148.714 153.844L147.784 156.545C147.534 157.27 147.476 158.009 147.61 158.762C147.743 159.514 148.034 160.19 148.482 160.789C148.937 161.364 149.516 161.773 150.218 162.015C151.294 162.385 152.154 162.472 152.797 162.275C153.472 162.062 154 161.669 154.382 161.093C154.786 160.526 155.113 159.88 155.363 159.155L156.293 156.453C156.543 155.728 156.636 155.001 156.573 154.273C156.51 153.545 156.262 152.897 155.829 152.329C155.405 151.738 154.772 151.298 153.929 151.008C153.087 150.718 152.317 150.675 151.619 150.88C150.929 151.061 150.334 151.419 149.836 151.953C149.338 152.488 148.964 153.118 148.714 153.844ZM166.204 124.935L127.508 156.275L122.953 151.606L161.65 120.267L166.204 124.935Z" fill="black"/>
</svg>
