<svg width="180" height="181" viewBox="0 0 180 181" fill="none" xmlns="http://www.w3.org/2000/svg">
<path d="M12.5731 60.8006L12.3853 59.8184L12.5731 60.8006C15.9636 60.1524 17.6402 56.2965 15.8019 53.3748C14.6079 51.477 15.9251 48.9996 18.1661 48.9283C21.6163 48.8185 23.8755 45.2723 22.5169 42.099C21.6344 40.0377 23.323 37.797 25.5476 38.0771C28.9724 38.5084 31.7585 35.3593 30.9131 32.0125C30.364 29.8386 32.3822 27.8895 34.5357 28.5142C37.8509 29.4759 41.0953 26.8015 40.7838 23.3636C40.5815 21.1306 42.8799 19.5213 44.909 20.4751C48.033 21.9436 51.6559 19.8096 51.886 16.3654C52.0355 14.1282 54.5573 12.8982 56.4123 14.1578C59.2681 16.0969 63.1802 14.5559 63.9463 11.1901C64.4439 9.00378 67.1271 8.18346 68.7622 9.71769C71.2794 12.0797 75.3844 11.1696 76.6677 7.96509C77.5012 5.88357 80.2796 5.49309 81.6546 7.26422C83.7714 9.9909 87.9682 9.73421 89.7369 6.76988C90.8858 4.84439 93.6911 4.89335 94.7721 6.85778C96.4363 9.88202 100.622 10.285 102.832 7.63388C104.268 5.91181 107.031 6.39903 107.792 8.50837C108.962 11.7557 113.033 12.8085 115.631 10.5358C117.319 9.05956 119.972 9.97303 120.393 12.1753L121.375 11.9876L120.393 12.1753C121.041 15.5658 124.897 17.2424 127.819 15.4042C129.716 14.2101 132.194 15.5273 132.265 17.7684C132.375 21.2186 135.921 23.4777 139.094 22.1191C141.156 21.2367 143.396 22.9252 143.116 25.1499C142.685 28.5747 145.834 31.3608 149.181 30.5154C151.355 29.9662 153.304 31.9845 152.679 34.1379C151.717 37.4532 154.392 40.6976 157.83 40.3861C160.063 40.1838 161.672 42.4821 160.718 44.5113C159.25 47.6353 161.384 51.2581 164.828 51.4883C167.065 51.6378 168.295 54.1596 167.036 56.0146C165.096 58.8703 166.637 62.7824 170.003 63.5485C172.19 64.0462 173.01 66.7293 171.476 68.3644C169.114 70.8817 170.024 74.9867 173.228 76.2699C175.31 77.1034 175.7 79.8819 173.929 81.2569C171.202 83.3736 171.459 87.5705 174.423 89.3392C176.349 90.488 176.3 93.2934 174.336 94.3744C171.311 96.0385 170.908 100.224 173.559 102.434C175.282 103.87 174.794 106.634 172.685 107.394C169.438 108.565 168.385 112.635 170.658 115.233C172.134 116.921 171.22 119.574 169.018 119.995C165.627 120.643 163.951 124.499 165.789 127.421C166.983 129.319 165.666 131.796 163.425 131.867C159.975 131.977 157.716 135.523 159.074 138.697C159.957 140.758 158.268 142.999 156.043 142.718C152.619 142.287 149.833 145.436 150.678 148.783C151.227 150.957 149.209 152.906 147.055 152.281C143.74 151.32 140.496 153.994 140.807 157.432C141.01 159.665 138.711 161.274 136.682 160.32C133.558 158.852 129.935 160.986 129.705 164.43C129.556 166.667 127.034 167.897 125.179 166.638C122.323 164.699 118.411 166.24 117.645 169.606C117.147 171.792 114.464 172.612 112.829 171.078C110.312 168.716 106.207 169.626 104.923 172.831C104.09 174.912 101.311 175.302 99.9365 173.531C97.8197 170.805 93.6229 171.061 91.8542 174.026C90.7053 175.951 87.8999 175.902 86.819 173.938C85.1548 170.914 80.9695 170.511 78.7588 173.162C77.3229 174.884 74.5598 174.397 73.7994 172.287C72.6288 169.04 68.5581 167.987 65.9599 170.26C64.2722 171.736 61.6193 170.823 61.1983 168.62C60.5501 165.23 56.6942 163.553 53.7725 165.391C51.8747 166.585 49.3974 165.268 49.326 163.027C49.2162 159.577 45.67 157.318 42.4967 158.676C40.4355 159.559 38.1947 157.87 38.4748 155.646C38.9061 152.221 35.757 149.435 32.4102 150.28C30.2363 150.829 28.2873 148.811 28.912 146.658C29.8737 143.342 27.1992 140.098 23.7614 140.409C21.5283 140.612 19.919 138.313 20.8729 136.284C22.3414 133.16 20.2073 129.537 16.7631 129.307C14.5259 129.158 13.2959 126.636 14.5555 124.781C16.4946 121.925 14.9536 118.013 11.5878 117.247C9.40152 116.749 8.58119 114.066 10.1154 112.431C12.4774 109.914 11.5673 105.809 8.36282 104.526C6.28131 103.692 5.89082 100.914 7.66196 99.5387C10.3886 97.4219 10.1319 93.2251 7.16762 91.4564C5.24212 90.3075 5.29109 87.5022 7.25551 86.4212C10.2798 84.7571 10.6828 80.5718 8.03161 78.3611C6.30955 76.9252 6.79676 74.162 8.9061 73.4017C12.1534 72.2311 13.2062 68.1603 10.9335 65.5622C9.45729 63.8745 10.3708 61.2216 12.5731 60.8006Z" stroke="black" stroke-width="2"/>
<path d="M54.4714 41.1133L56.68 41.8738C56.3865 42.5824 55.9657 43.1564 55.4179 43.5957C54.8749 44.0368 54.234 44.3063 53.4951 44.4044C52.7612 44.5043 51.9535 44.4024 51.072 44.0989C50.3825 43.8615 49.8052 43.5305 49.3399 43.1059C48.8764 42.6764 48.5273 42.1706 48.2925 41.5885C48.0627 41.0081 47.9562 40.3655 47.9731 39.6607C47.9899 38.9559 48.134 38.2095 48.4053 37.4216L48.6622 36.6755C48.9335 35.8876 49.2819 35.2116 49.7075 34.6476C50.1397 34.0803 50.6275 33.6395 51.1708 33.3254C51.7191 33.0129 52.3081 32.8301 52.9378 32.777C53.5675 32.7239 54.2197 32.8135 54.8944 33.0458C55.7906 33.3545 56.4906 33.7773 56.9943 34.3142C57.5028 34.8529 57.8287 35.4664 57.9718 36.1546C58.1198 36.8446 58.1028 37.5658 57.9208 38.3184L55.7047 37.5554C55.8293 37.1135 55.8695 36.717 55.8252 36.3657C55.7826 36.0095 55.6373 35.7034 55.3895 35.4473C55.1483 35.1879 54.7815 34.9735 54.289 34.8039C53.9197 34.6767 53.5734 34.6346 53.2501 34.6776C52.9269 34.7205 52.6233 34.8501 52.3395 35.0664C52.0558 35.2826 51.7933 35.5889 51.5522 35.9851C51.3178 36.3781 51.1022 36.8602 50.9055 37.4314L50.6435 38.1923C50.4519 38.7488 50.325 39.2532 50.2629 39.7055C50.2025 40.1529 50.2085 40.5516 50.2808 40.9015C50.3597 41.2482 50.5116 41.5428 50.7365 41.7855C50.9681 42.025 51.2808 42.2126 51.6748 42.3482C52.1377 42.5076 52.5448 42.5651 52.896 42.5208C53.2473 42.4765 53.5518 42.3362 53.8094 42.1C54.0719 41.8654 54.2926 41.5365 54.4714 41.1133ZM61.6255 43.2048L66.6304 37.2604L69.0163 38.082L62.3442 45.4849C62.1144 45.7363 61.8692 45.9686 61.6085 46.1818C61.3544 46.3918 61.0777 46.5636 60.7782 46.6974C60.4805 46.8262 60.1528 46.8979 59.7953 46.9125C59.4394 46.9222 59.0423 46.8516 58.604 46.7007C58.4957 46.6633 58.3636 46.6151 58.2077 46.5559C58.0518 46.4967 57.9287 46.4461 57.8386 46.404L58.419 44.6704C58.473 44.7055 58.5632 44.7476 58.6895 44.7966C58.8175 44.8407 58.9111 44.8729 58.9702 44.8933C59.2608 44.9933 59.5042 45.0303 59.7004 45.0042C59.8967 44.9782 60.0703 44.9058 60.2214 44.787C60.3791 44.6651 60.5338 44.5117 60.6855 44.3271L61.6255 43.2048ZM62.2352 35.747L62.8538 41.9174L62.6988 44.599L61.0414 44.0613L59.8566 34.928L62.2352 35.747ZM78.9295 41.4953L75.2262 52.2506L73.0101 51.4876L76.1157 42.4682L71.7944 40.9802L68.6888 49.9996L66.4727 49.2366L70.1761 38.4813L78.9295 41.4953ZM84.9737 53.6735L84.3785 55.402L78.6537 53.4308L79.2489 51.7023L84.9737 53.6735ZM83.0809 42.9248L79.3776 53.6801L77.1615 52.917L80.8649 42.1617L83.0809 42.9248ZM85.8275 48.7702L85.2475 50.4544L80.2688 48.7401L80.8487 47.0559L85.8275 48.7702ZM88.0744 44.6442L87.4767 46.3801L81.7593 44.4114L82.357 42.6755L88.0744 44.6442ZM91.1796 53.4555L88.4391 52.5119L89.0343 50.7833L91.7748 51.727C92.1983 51.8728 92.5668 51.9226 92.8802 51.8762C93.1953 51.825 93.4576 51.695 93.6672 51.4862C93.8768 51.2775 94.0359 51.0155 94.1444 50.7003C94.2546 50.3802 94.2956 50.0611 94.2675 49.7429C94.2393 49.4247 94.1211 49.1362 93.9128 48.8772C93.7046 48.6182 93.3887 48.4157 92.9652 48.2699L90.9929 47.5908L87.8873 56.6102L85.6712 55.8471L89.3745 45.0918L93.5629 46.534C94.405 46.824 95.0739 47.225 95.5695 47.7372C96.0718 48.2462 96.3914 48.8217 96.5284 49.4638C96.6654 50.1059 96.616 50.7692 96.3803 51.4537C96.1412 52.148 95.7743 52.6937 95.2796 53.0907C94.7848 53.4878 94.1871 53.7199 93.4864 53.7871C92.7907 53.856 92.0217 53.7455 91.1796 53.4555ZM102.885 57.7834L105.094 58.5439C104.8 59.2526 104.379 59.8265 103.831 60.2658C103.288 60.7069 102.647 60.9764 101.909 61.0746C101.175 61.1744 100.367 61.0725 99.4855 60.769C98.796 60.5316 98.2187 60.2006 97.7534 59.776C97.2899 59.3465 96.9408 58.8407 96.706 58.2586C96.4762 57.6782 96.3697 57.0356 96.3866 56.3308C96.4034 55.626 96.5475 54.8796 96.8188 54.0917L97.0757 53.3456C97.347 52.5577 97.6954 51.8817 98.121 51.3177C98.5532 50.7504 99.041 50.3097 99.5843 49.9955C100.133 49.683 100.722 49.5002 101.351 49.4471C101.981 49.394 102.633 49.4836 103.308 49.716C104.204 50.0246 104.904 50.4474 105.408 50.9843C105.916 51.523 106.242 52.1365 106.385 52.8247C106.533 53.5147 106.516 54.2359 106.334 54.9885L104.118 54.2255C104.243 53.7836 104.283 53.3871 104.239 53.0358C104.196 52.6796 104.051 52.3735 103.803 52.1174C103.562 51.858 103.195 51.6436 102.703 51.474C102.333 51.3469 101.987 51.3047 101.664 51.3477C101.34 51.3906 101.037 51.5202 100.753 51.7365C100.469 51.9527 100.207 52.259 99.9657 52.6552C99.7313 53.0482 99.5157 53.5303 99.319 54.1015L99.057 54.8624C98.8654 55.4189 98.7385 55.9233 98.6764 56.3756C98.616 56.823 98.622 57.2217 98.6943 57.5716C98.7732 57.9183 98.9251 58.2129 99.15 58.4556C99.3816 58.6951 99.6943 58.8827 100.088 59.0183C100.551 59.1777 100.958 59.2353 101.31 59.191C101.661 59.1467 101.965 59.0064 102.223 58.7701C102.485 58.5355 102.706 58.2066 102.885 57.7834ZM111.247 52.6231L107.544 63.3784L105.328 62.6154L109.031 51.8601L111.247 52.6231ZM117.585 54.8055L111.288 59.702L108.577 58.7685L108.976 56.6996L110.786 57.3227L114.896 53.8796L117.585 54.8055ZM111.599 64.7748L110.241 58.9282L112.322 57.8765L114.229 65.6803L111.599 64.7748ZM118.436 63.2289L125.26 57.4482L127.476 58.2112L123.773 68.9665L121.557 68.2034L124.059 60.9348L117.235 66.7155L115.019 65.9524L118.723 55.1972L120.939 55.9602L118.436 63.2289ZM134.983 70.893L134.388 72.6215L126.639 69.9534L127.234 68.2248L134.983 70.893ZM127.891 68.4512L126.388 72.8169L124.305 72.0996L125.69 67.6933L127.891 68.4512ZM136.578 71.4424L134.88 75.7493L132.849 75.0498L134.355 70.6768L136.578 71.4424ZM136.872 61.4466L136.274 63.1825L131.096 61.3995L131.694 59.6636L136.872 61.4466ZM138.453 61.9909L134.75 72.7461L132.541 71.9856L136.244 61.2304L138.453 61.9909ZM131.421 59.5694L133.637 60.3325L131.84 64.6137C131.547 65.3224 131.247 65.9354 130.943 66.4529C130.644 66.9672 130.344 67.4064 130.043 67.7708C129.746 68.1368 129.45 68.4452 129.154 68.6959C128.86 68.9417 128.57 69.1447 128.283 69.305C127.998 69.4603 127.72 69.5901 127.447 69.6945C127.176 69.794 126.914 69.8828 126.661 69.961L125.39 69.5235L125.986 67.795L126.48 67.9654C126.664 67.8964 126.87 67.7856 127.099 67.633C127.333 67.4822 127.581 67.2565 127.844 66.956C128.114 66.6523 128.396 66.2483 128.691 65.7439C128.991 65.2412 129.302 64.6101 129.624 63.8507L131.421 59.5694ZM143.055 63.5755L139.352 74.3307L137.135 73.5677L140.839 62.8124L143.055 63.5755ZM149.393 65.7578L143.096 70.6543L140.385 69.7208L140.784 67.6519L142.593 68.275L146.704 64.832L149.393 65.7578ZM143.407 75.7271L142.049 69.8805L144.13 68.8288L146.037 76.6326L143.407 75.7271ZM154.351 69.5225L148.356 77.4313L146 76.6199L153.699 67.2406L155.199 67.757L154.351 69.5225ZM153.712 79.2753L153.849 69.3496L154.246 67.4289L155.76 67.9503L156.075 80.0892L153.712 79.2753ZM154.957 75.2258L154.359 76.9618L148.679 75.0058L149.277 73.2699L154.957 75.2258Z" fill="black"/>
<path d="M64.5093 65.4495L46.9184 116.537L35.0939 112.466L48.0937 74.7113L35.2727 74.1037L38.3656 65.1212L63.4215 65.0749L64.5093 65.4495ZM72.4688 99.863L63.8265 94.4146L75.9029 69.3726L105.762 79.6541L102.597 88.847L82.3866 81.888L77.7371 91.6296C78.4113 91.4955 79.4915 91.4357 80.9779 91.4504C82.4957 91.4497 84.0733 91.7313 85.7108 92.2951C88.2371 93.1649 90.3381 94.3201 92.0138 95.7605C93.721 97.1857 94.9992 98.8686 95.8485 100.809C96.7058 102.727 97.1072 104.867 97.0526 107.229C97.0214 109.599 96.5346 112.153 95.5923 114.89C94.8351 117.088 93.7396 119.092 92.3057 120.901C90.9032 122.694 89.1832 124.156 87.1457 125.286C85.1397 126.401 82.8604 127.055 80.308 127.249C77.7636 127.42 74.9709 126.981 71.93 125.934C69.661 125.153 67.5713 124.041 65.6609 122.598C63.7505 121.155 62.1553 119.481 60.8754 117.575C59.6269 115.654 58.8219 113.584 58.4604 111.367C58.1304 109.134 58.3798 106.851 59.2086 104.52L71.1033 108.616C70.7466 109.88 70.6685 111.057 70.869 112.146C71.0695 113.236 71.5139 114.187 72.2022 114.999C72.9219 115.797 73.8549 116.393 75.0011 116.787C76.1707 117.19 77.222 117.29 78.155 117.088C79.088 116.886 79.9177 116.452 80.644 115.787C81.3704 115.121 82.0083 114.294 82.5579 113.306C83.1155 112.294 83.5998 111.192 84.0105 109.999C84.4455 108.736 84.6958 107.553 84.7614 106.451C84.8504 105.356 84.7234 104.357 84.3802 103.454C84.0451 102.528 83.4741 101.716 82.6673 101.02C81.8839 100.331 80.849 99.7657 79.5624 99.3227C77.8548 98.7347 76.4091 98.564 75.2253 98.8105C74.0415 99.057 73.1227 99.4079 72.4688 99.863ZM101.615 92.2374L102.545 89.5356C103.214 87.5941 104.243 85.973 105.633 84.6724C107.022 83.3717 108.725 82.5318 110.739 82.1526C112.753 81.7735 115.012 82.0148 117.515 82.8766C120.088 83.7626 122.052 84.9751 123.406 86.5141C124.76 88.0531 125.572 89.7588 125.843 91.6314C126.138 93.512 125.95 95.423 125.282 97.3645L124.352 100.066C123.699 101.961 122.678 103.559 121.288 104.859C119.922 106.168 118.232 107.012 116.217 107.391C114.226 107.778 111.967 107.537 109.441 106.667C106.891 105.789 104.94 104.581 103.586 103.042C102.232 101.503 101.396 99.789 101.078 97.9004C100.784 96.0198 100.963 94.1321 101.615 92.2374ZM110.124 92.1453L109.194 94.847C108.952 95.5488 108.863 96.2638 108.926 96.992C108.989 97.7202 109.233 98.3798 109.658 98.9708C110.114 99.5464 110.763 99.9792 111.605 100.269C112.47 100.567 113.237 100.622 113.903 100.433C114.578 100.22 115.153 99.8426 115.628 99.2996C116.126 98.7647 116.496 98.1463 116.738 97.4446L117.668 94.7428C117.926 93.9943 118.023 93.2559 117.96 92.5277C117.92 91.8075 117.684 91.1636 117.251 90.5961C116.827 90.0051 116.182 89.5606 115.316 89.2626C114.498 88.9807 113.739 88.9419 113.041 89.1463C112.35 89.3272 111.756 89.6852 111.258 90.2201C110.76 90.755 110.382 91.3967 110.124 92.1453ZM115.966 129.323L116.896 126.621C117.556 124.703 118.581 123.093 119.971 121.793C121.384 120.5 123.098 119.664 125.113 119.285C127.151 118.914 129.421 119.159 131.924 120.021C134.497 120.907 136.449 122.115 137.779 123.646C139.133 125.185 139.946 126.891 140.217 128.764C140.511 130.644 140.328 132.544 139.668 134.462L138.737 137.164C138.077 139.082 137.052 140.691 135.662 141.992C134.296 143.3 132.617 144.148 130.626 144.536C128.635 144.923 126.376 144.681 123.85 143.812C121.3 142.934 119.337 141.721 117.959 140.174C116.582 138.627 115.734 136.909 115.417 135.021C115.122 133.14 115.305 131.241 115.966 129.323ZM124.51 129.243L123.58 131.944C123.33 132.669 123.272 133.408 123.405 134.161C123.539 134.913 123.829 135.589 124.277 136.188C124.733 136.763 125.312 137.172 126.014 137.414C127.09 137.784 127.949 137.871 128.593 137.674C129.268 137.461 129.796 137.068 130.177 136.492C130.582 135.925 130.909 135.279 131.159 134.554L132.089 131.852C132.339 131.127 132.432 130.4 132.368 129.672C132.305 128.944 132.057 128.296 131.625 127.728C131.2 127.137 130.567 126.697 129.725 126.407C128.883 126.117 128.113 126.074 127.414 126.279C126.724 126.46 126.13 126.817 125.632 127.352C125.134 127.887 124.76 128.517 124.51 129.243ZM141.999 100.334L103.303 131.674L98.7489 127.005L137.445 95.6655L141.999 100.334Z" fill="black"/>
</svg>
