<svg width="41" height="41" viewBox="0 0 41 41" fill="none" xmlns="http://www.w3.org/2000/svg">
<path d="M31.6013 40.2104C31.2808 40.2117 30.9646 40.1324 30.6793 39.9789L20.4575 34.3605L10.2356 39.9789C9.90372 40.1622 9.52949 40.244 9.15549 40.215C8.78149 40.1861 8.42272 40.0475 8.11998 39.8152C7.81723 39.5828 7.58265 39.266 7.4429 38.9006C7.30315 38.5352 7.26384 38.136 7.32943 37.7484L9.33371 25.9014L1.07607 17.4843C0.818431 17.2144 0.635668 16.8759 0.547392 16.5052C0.459115 16.1345 0.468658 15.7455 0.574995 15.3801C0.691163 15.0061 0.904853 14.6738 1.19181 14.4208C1.47877 14.1679 1.82752 14.0045 2.19846 13.9492L13.6229 12.2026L18.6536 1.40774C18.8178 1.05197 19.074 0.751929 19.393 0.54199C19.7121 0.332051 20.081 0.220703 20.4575 0.220703C20.834 0.220703 21.2029 0.332051 21.5219 0.54199C21.841 0.751929 22.0972 1.05197 22.2613 1.40774L27.3522 12.1816L38.7766 13.9281C39.1476 13.9835 39.4963 14.1469 39.7833 14.3998C40.0702 14.6527 40.2839 14.985 40.4001 15.359C40.5064 15.7245 40.516 16.1134 40.4277 16.4842C40.3394 16.8549 40.1567 17.1934 39.899 17.4633L31.6414 25.8803L33.6457 37.7273C33.7172 38.1218 33.6798 38.5296 33.5377 38.9025C33.3956 39.2753 33.1549 39.5977 32.844 39.8316C32.481 40.0986 32.044 40.2318 31.6013 40.2104Z" fill="#eec900"/>
</svg>
