<svg width="86" height="86" viewBox="0 0 86 86" fill="none" xmlns="http://www.w3.org/2000/svg">
<path d="M80.7643 80.7653C83.7453 77.7843 83.7453 72.9457 80.7643 69.9647L47.2824 36.4828C46.5775 35.7546 45.7347 35.174 44.8031 34.7748C43.8716 34.3755 42.8699 34.1657 41.8564 34.1575C40.8429 34.1493 39.838 34.3428 38.9 34.7268C37.9621 35.1109 37.11 35.6777 36.3934 36.3944C35.6767 37.1111 35.1099 37.9632 34.7258 38.9011C34.3418 39.839 34.1482 40.844 34.1564 41.8574C34.1647 42.8709 34.3745 43.8726 34.7737 44.8041C35.1729 45.7357 35.7536 46.5785 36.4818 47.2834L69.9637 80.7653C72.9446 83.7463 77.7833 83.7463 80.7643 80.7653ZM80.7643 80.7653L62.4032 62.4043" stroke="#D9D9D9" stroke-width="6" stroke-linecap="round"/>
<path d="M33.2417 3V15.9607M26.7613 9.48037H39.7221M9.48037 22.4411V35.4018M3 28.9215H15.9607" stroke="#D9D9D9" stroke-width="6" stroke-linecap="round"/>
<path d="M18.1208 65.6437V82.9246M9.48035 74.2841H26.7613M74.284 9.48047V26.7614M65.6435 18.121H82.9245" stroke="#D9D9D9" stroke-width="6" stroke-linecap="round"/>
</svg>
