<svg width="86" height="101" viewBox="0 0 86 101" fill="none" xmlns="http://www.w3.org/2000/svg">
<path d="M18 10.5C13.34 10.5 11.01 10.5 9.175 11.26C7.9609 11.7626 6.85776 12.4995 5.92862 13.4286C4.99948 14.3578 4.26256 15.4609 3.76 16.675C3 18.51 3 20.84 3 25.5V78C3 87.43 3 92.14 5.93 95.07C8.86 98 13.57 98 23 98H63C72.43 98 77.14 98 80.07 95.07C83 92.14 83 87.43 83 78V25.5C83 20.84 83 18.51 82.24 16.675C81.7374 15.4609 81.0005 14.3578 80.0714 13.4286C79.1422 12.4995 78.0391 11.7626 76.825 11.26C74.99 10.5 72.66 10.5 68 10.5" stroke="#D9D9D9" stroke-width="6"/>
<path d="M18 11.75C18 6.92 21.92 3 26.75 3H59.25C61.5706 3 63.7962 3.92187 65.4372 5.56282C67.0781 7.20376 68 9.42936 68 11.75C68 14.0706 67.0781 16.2962 65.4372 17.9372C63.7962 19.5781 61.5706 20.5 59.25 20.5H26.75C24.4294 20.5 22.2038 19.5781 20.5628 17.9372C18.9219 16.2962 18 14.0706 18 11.75Z" stroke="#D9D9D9" stroke-width="6"/>
<path d="M23 38H63M23 58H63M23 78H43" stroke="#D9D9D9" stroke-width="6" stroke-linecap="round" stroke-linejoin="round"/>
</svg>
