<svg width="86" height="86" viewBox="0 0 86 86" fill="none" xmlns="http://www.w3.org/2000/svg">
<path d="M43 83C65.0914 83 83 65.0914 83 43C83 20.9086 65.0914 3 43 3C20.9086 3 3 20.9086 3 43C3 65.0914 20.9086 83 43 83Z" stroke="#D9D9D9" stroke-width="6"/>
<path d="M37.3555 65.7698L38.8222 66.4365C40.7555 67.3254 41.9777 69.1298 41.9777 71.112C41.9777 73.9965 46.5155 79.6676 49.6666 79.6676C59.1777 79.6676 62.7688 79.312 69.6666 73.0009C70.8888 71.8809 73 67.9209 73 66.3342C73 63.032 66.7466 59.4276 63.1377 59.4276H62.7422C58.92 59.4276 55.8222 56.592 55.8222 53.0898V50.9742C55.8222 46.3076 51.6888 42.5254 46.5911 42.5254H32.7422C30.1955 42.5254 28.1288 40.632 28.1288 38.2987C28.1288 35.9654 30.1955 34.072 32.7422 34.072H36.1733C39.3777 34.072 41.9733 31.6943 41.9733 28.7609V28.0765C41.9733 24.7876 45.4933 22.4676 48.8977 23.5076C52.3022 24.5431 55.8222 22.2231 55.8222 18.9387V17.6498C55.8222 15.1431 53.12 8.19203 50.4133 6.62314C49.9511 6.35648 49.3955 6.33425 48.8577 6.33425H40.4755C39.9375 6.32466 39.4005 6.28609 38.8666 6.2187C34.5911 5.74314 30.04 7.63203 26.3333 9.66759L16.3333 16.3343C12.08 18.672 9.66663 24.1743 9.66663 28.7165C9.66663 32.1431 11.1555 35.432 13.8 37.8587L30.1244 52.8054C31.8 54.3387 32.7466 56.4231 32.7466 58.5965V58.9298C32.7466 61.8276 34.5288 64.472 37.36 65.7698H37.3555Z" fill="#D9D9D9"/>
</svg>
