<svg width="80" height="77" viewBox="0 0 80 77" fill="none" xmlns="http://www.w3.org/2000/svg">
<path d="M56.749 3.63636V0C56.6763 0 56.5963 3.39509e-07 56.5199 0.00727306L56.749 3.63636ZM23.2509 3.63636L23.48 0.00727306C23.4037 0.00243734 23.3273 1.15469e-05 23.2509 0V3.63636ZM40 72.7272L37.8545 75.6654C38.4726 76.1164 39.2173 76.361 39.9825 76.3642C40.7476 76.3675 41.4944 76.1293 42.1163 75.6835L40 72.7272ZM72.7272 25.4545C72.7272 26.4189 73.1103 27.3439 73.7922 28.0258C74.4742 28.7078 75.3991 29.0909 76.3635 29.0909C77.328 29.0909 78.2529 28.7078 78.9348 28.0258C79.6168 27.3439 79.9999 26.4189 79.9999 25.4545H72.7272ZM63.4436 56.9708C64.1071 56.2707 64.4653 55.3356 64.4394 54.3713C64.4135 53.407 64.0055 52.4926 63.3054 51.829C62.6052 51.1655 61.6701 50.8073 60.7059 50.8332C59.7416 50.8591 58.8271 51.267 58.1636 51.9672L63.4436 56.9708ZM56.5199 0.00727306C52.4727 0.272643 48.5619 1.57501 45.1636 3.78909L49.1199 9.89453C51.4713 8.3576 54.1789 7.45216 56.9817 7.26545L56.5199 0.00727306ZM45.1636 3.78909C41.7505 6.03851 38.9212 9.06726 36.909 12.6254L43.2181 16.2436C44.6551 13.6899 46.6778 11.5139 49.1199 9.89453L45.1636 3.78909ZM43.0909 12.6254C41.0788 9.06726 38.2494 6.03851 34.8363 3.78909L30.88 9.89453C33.3221 11.5139 35.3448 13.6899 36.7818 16.2436L43.0909 12.6254ZM34.8363 3.78909C31.4382 1.57471 27.5273 0.272319 23.48 0.00727306L23.0182 7.26545C25.7782 7.43999 28.4727 8.33454 30.88 9.89453L34.8363 3.78909ZM23.2509 0C16.8618 0 10.7964 2.74181 6.3709 7.52363L11.7054 12.4654C14.8182 9.10181 18.9818 7.27272 23.2509 7.27272V0ZM6.3709 7.52363C1.80727 12.4509 0 19.0691 0 25.4545H7.27272C7.27272 20.3272 8.72363 15.68 11.7054 12.4654L6.3709 7.52363ZM0 25.4545C0 31.6363 2.68 37.8763 6.24363 43.5272C9.84362 49.2327 14.5818 54.7018 19.2254 59.4181C25.0252 65.2653 31.2402 70.6855 37.8218 75.6363L37.8436 75.6545L37.8509 75.6617L40 72.7272L42.1454 69.789H42.1418L42.1272 69.7781L42.0545 69.7272C40.2147 68.342 38.4057 66.9162 36.629 65.4508C32.3712 61.9465 28.2932 58.229 24.4109 54.3127C19.9636 49.7963 15.6109 44.7454 12.3927 39.6436C9.13817 34.4872 7.27272 29.6363 7.27272 25.4545H0ZM79.9999 25.4545C79.9999 19.0691 78.1926 12.4509 73.629 7.52363L68.2945 12.4654C71.269 15.68 72.7272 20.3272 72.7272 25.4545H79.9999ZM73.629 7.52363C69.2035 2.74181 63.1381 0 56.749 0V7.27272C61.0217 7.27272 65.1817 9.10181 68.2945 12.4654L73.629 7.52363ZM40 72.7272L42.1163 75.6835H42.1199L42.1309 75.6763L42.1563 75.6545L42.2618 75.5817C42.8665 75.144 43.4641 74.6967 44.0545 74.2399C45.2618 73.3235 46.9636 71.9963 48.9854 70.3345C54.0707 66.1765 58.8989 61.7137 63.4436 56.9708L58.1636 51.9672C53.8265 56.4917 49.2193 60.7492 44.3672 64.7163C42.2832 66.4288 40.1564 68.0887 37.989 69.6945L37.9054 69.7563L37.8872 69.7672L37.8836 69.7708L40 72.7272ZM36.909 12.6254C36.8363 12.7563 36.9745 12.4909 37.1709 12.24C37.5084 11.8131 37.9383 11.4682 38.4284 11.2314C38.9184 10.9946 39.4557 10.8719 40 10.8727V18.1418C40.6347 18.1411 41.2585 17.9796 41.8104 17.6661C42.3623 17.3525 42.8235 16.9013 43.149 16.3563L43.1963 16.28C43.2034 16.2678 43.2107 16.2557 43.2181 16.2436L36.909 12.6254ZM36.7818 16.2436L36.8036 16.28L36.8509 16.3563C37.1764 16.9013 37.6376 17.3525 38.1895 17.6661C38.7414 17.9796 39.3652 18.1411 40 18.1418V10.8727C40.5445 10.8724 41.082 10.9956 41.572 11.233C42.0621 11.4705 42.4919 11.816 42.829 12.2436C43.0254 12.4945 43.1636 12.7563 43.0909 12.6254L36.7818 16.2436Z" fill="#D9D9D9"/>
<path d="M22.2037 42.0108C21.9726 42.4395 21.8299 42.9102 21.7841 43.395C21.7383 43.8799 21.7904 44.369 21.9373 44.8333C22.0841 45.2976 22.3227 45.7277 22.6389 46.0981C22.9552 46.4684 23.3426 46.7715 23.7781 46.9893C24.2137 47.2071 24.6886 47.3351 25.1746 47.3659C25.6606 47.3967 26.1479 47.3295 26.6075 47.1684C27.067 47.0073 27.4895 46.7555 27.8499 46.4279C28.2104 46.1004 28.5013 45.7038 28.7055 45.2617L22.2037 42.0108ZM32.7273 29.0909L35.6364 26.909C35.2644 26.4136 34.7719 26.0214 34.2058 25.7696C33.6396 25.5179 33.0185 25.4151 32.4014 25.4708C31.7843 25.5265 31.1917 25.739 30.6798 26.0881C30.1679 26.4372 29.7537 26.9113 29.4764 27.4654L32.7273 29.0909ZM43.6364 43.6363L40.7273 45.8181C41.04 46.2348 41.4385 46.5795 41.8959 46.8288C42.3533 47.0781 42.8589 47.2262 43.3785 47.2631C43.8982 47.3 44.4197 47.2248 44.9077 47.0426C45.3957 46.8605 45.839 46.5755 46.2073 46.2072L43.6364 43.6363ZM50.9091 36.3636L53.48 33.7927C52.7981 33.111 51.8734 32.728 50.9091 32.728C49.9449 32.728 49.0201 33.111 48.3382 33.7927L50.9091 36.3636ZM58.1819 43.6363L55.6109 46.2072C56.2298 46.8261 57.0512 47.201 57.9242 47.2632C58.7972 47.3253 59.6634 47.0704 60.3637 46.5454L58.1819 43.6363ZM76.3636 41.8181C77.3281 41.8181 78.253 41.435 78.9349 40.7531C79.6169 40.0711 80 39.1462 80 38.1818C80 37.2173 79.6169 36.2924 78.9349 35.6105C78.253 34.9285 77.3281 34.5454 76.3636 34.5454V41.8181ZM28.7055 45.2617L35.9782 30.7163L29.4764 27.4654L22.2037 42.0108L28.7055 45.2617ZM29.8182 31.2727L40.7273 45.8181L46.5455 41.4545L35.6364 26.909L29.8182 31.2727ZM46.2073 46.2072L53.48 38.9345L48.3382 33.7927L41.0655 41.0654L46.2073 46.2072ZM48.3382 38.9345L55.6109 46.2072L60.7528 41.0654L53.48 33.7927L48.3382 38.9345ZM60.3637 46.5454L65.6982 42.5454L61.3346 36.7272L56 40.7272L60.3637 46.5454ZM67.88 41.8181H76.3636V34.5454H67.88V41.8181ZM65.6982 42.5454C66.2109 42.1599 66.4691 41.9672 66.6618 41.8436C66.8109 41.7418 66.7818 41.7781 66.6655 41.8181L64.3673 34.9199C63.12 35.3345 62.1055 36.149 61.3346 36.7272L65.6982 42.5454ZM67.88 34.5454C66.9127 34.5454 65.6146 34.5018 64.3673 34.9199L66.6655 41.8181C66.5491 41.8545 66.5055 41.8472 66.6873 41.8327C66.9164 41.8218 67.2327 41.8181 67.88 41.8181V34.5454Z" fill="#D9D9D9"/>
</svg>
