<svg width="20" height="17" viewBox="0 0 20 17" fill="none" xmlns="http://www.w3.org/2000/svg">
<path d="M16.9333 9.67868V13.5164C16.9333 14.4738 16.5945 15.2924 15.917 15.9722C15.2395 16.6521 14.4237 16.992 13.4696 16.992H3.46362C2.50952 16.992 1.69373 16.6521 1.01624 15.9722C0.338745 15.2924 0 14.4738 0 13.5164V3.47564C0 2.51823 0.338745 1.6996 1.01624 1.01976C1.69373 0.33992 2.50952 0 3.46362 0H13.4696C13.9747 0 14.4438 0.100568 14.8767 0.301705C14.997 0.358023 15.0692 0.450545 15.0932 0.579273C15.1173 0.716045 15.0812 0.832705 14.985 0.92925L14.3957 1.52059C14.3155 1.60105 14.2233 1.64127 14.1191 1.64127C14.095 1.64127 14.0589 1.63323 14.0108 1.61714C13.8264 1.56886 13.646 1.54473 13.4696 1.54473H3.46362C2.93446 1.54473 2.48146 1.7338 2.10463 2.11193C1.7278 2.49007 1.53939 2.94464 1.53939 3.47564V13.5164C1.53939 14.0474 1.7278 14.5019 2.10463 14.8801C2.48146 15.2582 2.93446 15.4473 3.46362 15.4473H13.4696C13.9988 15.4473 14.4518 15.2582 14.8286 14.8801C15.2055 14.5019 15.3939 14.0474 15.3939 13.5164V10.451C15.3939 10.3465 15.4299 10.258 15.5021 10.1855L16.2718 9.41318C16.352 9.33273 16.4442 9.2925 16.5484 9.2925C16.5965 9.2925 16.6446 9.30457 16.6927 9.3287C16.8531 9.39307 16.9333 9.50973 16.9333 9.67868ZM19.7114 3.77734L9.92183 13.6008C9.7294 13.7939 9.5009 13.8905 9.23632 13.8905C8.97174 13.8905 8.74324 13.7939 8.55081 13.6008L3.37943 8.41152C3.18701 8.21843 3.0908 7.98914 3.0908 7.72364C3.0908 7.45814 3.18701 7.22884 3.37943 7.03575L4.70235 5.70825C4.89477 5.51516 5.12327 5.41861 5.38785 5.41861C5.65244 5.41861 5.88094 5.51516 6.07336 5.70825L9.23632 8.88218L17.0174 1.07407C17.2099 0.880977 17.4384 0.784432 17.7029 0.784432C17.9675 0.784432 18.196 0.880977 18.3885 1.07407L19.7114 2.40157C19.9038 2.59466 20 2.82395 20 3.08945C20 3.35495 19.9038 3.58425 19.7114 3.77734Z" fill="#303c4f"/>
</svg>
