<svg width="64" height="64" viewBox="0 0 64 64" fill="none" xmlns="http://www.w3.org/2000/svg">
<g clip-path="url(#clip0_108_32)">
<path d="M41.6714 12.4057C43.2319 13.4491 44.5305 15.0007 44.958 16.8618C44.9719 16.9488 44.9857 17.0358 45 17.1254C45.0743 17.1438 45.1486 17.1622 45.2251 17.1811C47.116 17.6928 48.6957 18.8378 49.75 20.5004C50.3445 21.6166 50.7399 22.5824 50.7661 23.8442C50.7916 24.765 50.9229 25.3517 51.519 26.08C52.7349 27.6351 52.7662 29.6221 52.625 31.5004C52.3894 32.8496 51.7726 34.2145 50.7505 35.1469C50.5846 35.4489 50.6469 35.658 50.7082 35.9872C50.9531 37.5283 50.8682 39.1904 50.25 40.6254C50.2091 40.7319 50.1681 40.8384 50.126 40.9482C49.4756 42.4555 48.1133 43.6745 46.6753 44.4184C46.3063 44.6728 46.1911 44.9057 45.9922 45.3051C44.9594 47.1515 43.3291 48.2998 41.3149 48.899C40.6026 49.0632 39.913 49.0623 39.1851 49.0493C39.0491 49.0488 38.9131 49.0482 38.773 49.0477C38.2731 49.0451 37.7733 49.0382 37.2734 49.0317C35.5912 49.0162 35.5912 49.0162 33.875 49.0004C33.875 45.3292 33.875 41.6579 33.875 37.8754C34.718 38.1564 34.718 38.1564 35.0679 38.3642C35.1427 38.4079 35.2176 38.4517 35.2947 38.4968C35.4079 38.5643 35.4079 38.5643 35.5234 38.6332C36.6136 39.2782 37.6091 39.4548 38.8726 39.165C40.1768 38.7114 41.3191 38.0066 42.375 37.1254C42.2863 37.0275 42.2863 37.0275 42.1958 36.9277C41.6009 36.2655 41.0361 35.5861 40.4854 34.8867C40.4077 34.8005 40.33 34.7142 40.25 34.6254C39.7909 34.6254 39.3853 35.0014 39.0063 35.248C38.5577 35.5329 38.1516 35.784 37.625 35.8754C37.2402 35.6987 37.2402 35.6987 36.8438 35.4223C35.8859 34.7825 34.9809 34.4414 33.875 34.1254C33.875 31.6504 33.875 29.1754 33.875 26.6254C34.718 26.9064 34.718 26.9064 35.0679 27.1142C35.1427 27.1579 35.2176 27.2017 35.2947 27.2468C35.4079 27.3143 35.4079 27.3143 35.5234 27.3832C36.6136 28.0282 37.6091 28.2048 38.8726 27.915C40.1768 27.4614 41.3191 26.7566 42.375 25.8754C42.3159 25.8102 42.2567 25.7449 42.1958 25.6777C41.6009 25.0155 41.0361 24.3361 40.4854 23.6367C40.3689 23.5074 40.3689 23.5074 40.25 23.3754C39.7909 23.3754 39.3853 23.7514 39.0063 23.998C38.5577 24.2829 38.1516 24.534 37.625 24.6254C37.2402 24.4487 37.2402 24.4487 36.8438 24.1723C35.8859 23.5325 34.9809 23.1914 33.875 22.8754C33.875 19.3692 33.875 15.8629 33.875 12.2504C36.5637 11.1301 39.0752 10.9017 41.6714 12.4057Z" fill="white"/>
<path d="M30.125 12.25C30.125 15.7562 30.125 19.2625 30.125 22.875C29.5062 23.0812 28.8875 23.2875 28.25 23.5C27.3958 23.9245 27.3958 23.9245 26.625 24.5C25.9556 24.5781 25.5239 24.3555 24.9687 24.0156C24.8908 23.97 24.8128 23.9244 24.7324 23.8774C24.4146 23.689 24.1372 23.5121 23.875 23.25C22.5212 24.4957 22.5212 24.4957 21.75 26C23.1254 27.2439 24.9101 28.0683 26.7651 28.0605C27.6143 27.9545 28.2688 27.5577 29 27.125C29.8717 26.625 29.8717 26.625 30.125 26.625C30.125 29.1 30.125 31.575 30.125 34.125C29.5062 34.3312 28.8875 34.5375 28.25 34.75C27.3958 35.1745 27.3958 35.1745 26.625 35.75C25.9556 35.8281 25.5239 35.6055 24.9687 35.2656C24.8908 35.22 24.8128 35.1744 24.7324 35.1274C24.4146 34.939 24.1372 34.7621 23.875 34.5C22.5212 35.7457 22.5212 35.7457 21.75 37.25C23.1254 38.4939 24.9101 39.3183 26.7651 39.3105C27.6143 39.2045 28.2688 38.8077 29 38.375C29.8717 37.875 29.8717 37.875 30.125 37.875C30.125 41.5462 30.125 45.2175 30.125 49C29.0035 49.0103 27.882 49.0206 26.7266 49.0312C26.2006 49.038 26.2006 49.038 25.664 49.045C25.381 49.0465 25.0979 49.0477 24.8149 49.0488C24.6721 49.0514 24.5293 49.0539 24.3821 49.0565C22.3844 49.0574 20.6455 48.3115 19.2187 46.9218C18.7102 46.4104 18.3405 45.8921 17.9844 45.2656C17.5962 44.5904 17.2587 44.2829 16.5732 43.9306C15.0018 43.0523 13.9688 41.4471 13.3984 39.7812C13.0839 38.5445 13.1032 37.0057 13.3335 35.7514C13.354 35.5651 13.354 35.5651 13.375 35.375C13.2098 35.1759 13.0419 34.9786 12.8618 34.7929C12.54 34.3948 12.3217 33.9646 12.0937 33.5078C12.0511 33.4242 12.0085 33.3407 11.9646 33.2546C11.1706 31.6368 11.0801 29.5778 11.5781 27.8515C11.8914 27.004 12.2783 26.1268 12.8945 25.457C13.1993 25.0179 13.1833 24.7181 13.1875 24.1875C13.2563 22.0798 14.1234 20.339 15.625 18.875C16.5544 18.0123 17.7357 17.3263 19 17.125C19.0184 17.0507 19.0367 16.9764 19.0557 16.8999C19.5674 15.0089 20.7123 13.4293 22.375 12.375C24.9094 11.0251 27.5553 10.9651 30.125 12.25Z" fill="white"/>
<path d="M22.625 52.75C28.8125 52.75 35 52.75 41.375 52.75C41.375 53.9875 41.375 55.225 41.375 56.5C35.1875 56.5 29 56.5 22.625 56.5C22.625 55.2625 22.625 54.025 22.625 52.75Z" fill="white"/>
<path d="M53.2648 8.1463C53.8481 8.40381 54.283 8.96937 54.7265 9.41419C54.8386 9.52271 54.9507 9.63123 55.0661 9.74304C55.1714 9.84802 55.2767 9.953 55.3852 10.0612C55.4822 10.1572 55.5792 10.2533 55.6791 10.3523C55.875 10.6251 55.875 10.6251 55.8538 10.8598C55.7213 11.1984 55.5403 11.3842 55.2847 11.6429C55.137 11.7936 55.137 11.7936 54.9863 11.9473C54.8256 12.1081 54.8256 12.1081 54.6616 12.2721C54.552 12.3827 54.4424 12.4932 54.3294 12.6072C54.0973 12.8406 53.8649 13.0736 53.6318 13.3059C53.3329 13.6041 53.0363 13.9045 52.7403 14.2055C52.4577 14.4922 52.1728 14.7765 51.8882 15.0612C51.7286 15.2238 51.7286 15.2238 51.5657 15.3898C51.4661 15.4883 51.3664 15.5868 51.2637 15.6883C51.1764 15.7759 51.0891 15.8635 50.9991 15.9537C50.75 16.1251 50.75 16.1251 50.4852 16.1039C49.9018 15.8464 49.4669 15.2809 49.0234 14.8361C48.9113 14.7275 48.7993 14.619 48.6838 14.5072C48.5785 14.4022 48.4732 14.2972 48.3647 14.1891C48.2677 14.093 48.1708 13.9969 48.0709 13.8979C47.875 13.6251 47.875 13.6251 47.8961 13.3904C48.0286 13.0519 48.2096 12.866 48.4652 12.6074C48.5637 12.5069 48.6622 12.4065 48.7636 12.3029C48.8708 12.1958 48.9779 12.0886 49.0883 11.9782C49.198 11.8676 49.3076 11.757 49.4205 11.6431C49.6526 11.4097 49.885 11.1767 50.1182 10.9443C50.4171 10.6461 50.7136 10.3458 51.0096 10.0447C51.2922 9.75808 51.5771 9.47372 51.8618 9.18909C51.9682 9.08064 52.0746 8.9722 52.1842 8.86047C52.3337 8.71272 52.3337 8.71272 52.4862 8.56198C52.6172 8.43059 52.6172 8.43059 52.7509 8.29655C53 8.12512 53 8.12512 53.2648 8.1463Z" fill="white"/>
<path d="M10.8596 8.1459C11.1981 8.27839 11.384 8.4594 11.6426 8.71496C11.7431 8.81345 11.8435 8.91193 11.9471 9.01339C12.1078 9.17412 12.1078 9.17412 12.2719 9.3381C12.3824 9.44772 12.493 9.55734 12.6069 9.67028C12.8403 9.90235 13.0733 10.1348 13.3057 10.3679C13.6039 10.6668 13.9043 10.9634 14.2053 11.2594C14.4919 11.542 14.7763 11.8269 15.0609 12.1115C15.1694 12.2179 15.2778 12.3243 15.3895 12.434C15.488 12.5336 15.5865 12.6333 15.688 12.736C15.7756 12.8233 15.8632 12.9106 15.9535 13.0006C16.1249 13.2497 16.1249 13.2497 16.1037 13.5145C15.8462 14.0979 15.2806 14.5328 14.8358 14.9763C14.7273 15.0884 14.6188 15.2004 14.507 15.3159C14.3495 15.4738 14.3495 15.4738 14.1888 15.635C14.0928 15.7319 13.9967 15.8289 13.8977 15.9288C13.6249 16.1247 13.6249 16.1247 13.3902 16.1035C13.0516 15.9711 12.8658 15.79 12.6071 15.5345C12.5067 15.436 12.4062 15.3375 12.3027 15.2361C12.1955 15.1289 12.0883 15.0217 11.9779 14.9113C11.8673 14.8017 11.7568 14.6921 11.6428 14.5792C11.4094 14.3471 11.1764 14.1146 10.9441 13.8815C10.6459 13.5826 10.3455 13.2861 10.0445 12.9901C9.75783 12.7074 9.47347 12.4225 9.18884 12.1379C9.0804 12.0315 8.97195 11.9251 8.86022 11.8155C8.76172 11.7158 8.66322 11.6162 8.56174 11.5135C8.43035 11.3825 8.43035 11.3825 8.2963 11.2488C8.12488 10.9997 8.12488 10.9997 8.14606 10.7349C8.40357 10.1516 8.96912 9.71668 9.41394 9.27316C9.52246 9.16109 9.63099 9.04903 9.7428 8.93356C9.84778 8.82826 9.95276 8.72296 10.0609 8.61447C10.157 8.5175 10.2531 8.42053 10.3521 8.32062C10.6249 8.12472 10.6249 8.12472 10.8596 8.1459Z" fill="white"/>
<path d="M26.625 60.25C30.1725 60.25 33.72 60.25 37.375 60.25C36.6313 61.9234 35.7134 63.0494 34.0078 63.8125C32.5847 64.2678 30.8328 64.1936 29.479 63.5767C28.117 62.8008 27.2682 61.7851 26.625 60.375C26.625 60.3337 26.625 60.2925 26.625 60.25Z" fill="white"/>
<path d="M56.375 30.125C58.8912 30.125 61.4075 30.125 64 30.125C64 31.3625 64 32.6 64 33.875C61.4838 33.875 58.9675 33.875 56.375 33.875C56.375 32.6375 56.375 31.4 56.375 30.125Z" fill="white"/>
<path d="M0 30.125C2.51625 30.125 5.0325 30.125 7.625 30.125C7.625 31.3625 7.625 32.6 7.625 33.875C5.10875 33.875 2.5925 33.875 0 33.875C0 32.6375 0 31.4 0 30.125Z" fill="white"/>
<path d="M30.125 0C31.3625 0 32.6 0 33.875 0C33.875 2.51625 33.875 5.0325 33.875 7.625C32.6375 7.625 31.4 7.625 30.125 7.625C30.125 5.10875 30.125 2.5925 30.125 0Z" fill="white"/>
</g>
</svg>
